<?xml version="1.0" encoding="utf-8"?>
<svg version="1.1" xmlns="http://www.w3.org/2000/svg" xmlns:xlink="http://www.w3.org/1999/xlink" height="23.01000213623047" width="116.04000854492188">
  <defs>
    <path id="path-1" opacity="1" fill-rule="evenodd" d="M59.399993896484375,12.330001831054688 C59.399993896484375,14.290008544921875 59.41999816894531,16.08999252319336 59.459991455078125,17.729999542236328 C59.5,19.370010375976562 59.55999755859375,20.99999237060547 59.63999938964844,22.62000274658203 C59.37998962402344,22.580001831054688 59.04998779296875,22.55999755859375 58.649993896484375,22.55999755859375 L56.2349853515625,22.55999755859375 C55.864990234375,22.55999755859375 55.579986572265625,22.580001831054688 55.37998962402344,22.62000274658203 C55.399993896484375,22.580001831054688 55.41999816894531,22.450000762939453 55.43998718261719,22.229999542236328 C55.459991455078125,22.009998321533203 55.4849853515625,21.76000213623047 55.51499938964844,21.479999542236328 C55.54499816894531,21.199996948242188 55.56999206542969,20.94000244140625 55.589996337890625,20.700000762939453 C55.6099853515625,20.459999084472656 55.6199951171875,20.30999755859375 55.6199951171875,20.25 L55.55999755859375,20.19000244140625 C55.17999267578125,21.090003967285156 54.660003662109375,21.784996032714844 54,22.275001525878906 C53.339996337890625,22.765003204345703 52.42999267578125,23.01000213623047 51.269989013671875,23.01000213623047 C50.24998474121094,23.01000213623047 49.37998962402344,22.81500244140625 48.65998840332031,22.424999237060547 C47.93998718261719,22.034996032714844 47.34999084472656,21.490005493164062 46.88999938964844,20.790000915527344 C46.42999267578125,20.089996337890625 46.089996337890625,19.270004272460938 45.8699951171875,18.330001831054688 C45.649993896484375,17.389995574951172 45.53999328613281,16.3800048828125 45.53999328613281,15.299999237060547 C45.53999328613281,14.219993591308594 45.68998718261719,13.225006103515625 45.989990234375,12.314998626708984 C46.28999328613281,11.40499496459961 46.69999694824219,10.615005493164062 47.21998596191406,9.944999694824219 C47.739990234375,9.27499771118164 48.35499572753906,8.75 49.06498718261719,8.369998931884766 C49.774993896484375,7.989997863769531 50.52998352050781,7.799999237060547 51.329986572265625,7.799999237060547 C52.22999572753906,7.799999237060547 53.03498840332031,8.009998321533203 53.7449951171875,8.430000305175781 C54.45500183105469,8.85000228881836 54.97999572753906,9.379997253417969 55.31999206542969,10.020000457763672 L55.37998962402344,10.020000457763672 C55.37998962402344,8.219989776611328 55.36000061035156,6.5250091552734375 55.31999206542969,4.935001373291016 C55.279998779296875,3.3449935913085938 55.220001220703125,1.7000083923339844 55.13999938964844,0 C55.399993896484375,0.04000091552734375 55.72999572753906,0.07500076293945312 56.12998962402344,0.10499954223632812 C56.529998779296875,0.13499832153320312 56.94999694824219,0.15000152587890625 57.38999938964844,0.15000152587890625 C57.83000183105469,0.15000152587890625 58.24998474121094,0.13499832153320312 58.649993896484375,0.10499954223632812 L59.63999938964844,0 C59.55999755859375,1.6800079345703125 59.5,3.3399925231933594 59.459991455078125,4.979999542236328 C59.41999816894531,6.620006561279297 59.399993896484375,8.419990539550781 59.399993896484375,10.380001068115234 L59.399993896484375,12.330001831054688 L23.5,0.8400001525878906 C23.039993286132812,1.3000030517578125 22.80999755859375,1.8599967956542969 22.80999755859375,2.520000457763672 C22.80999755859375,3.180004119873047 23.039993286132812,3.7399978637695312 23.5,4.200000762939453 C23.960006713867188,4.660003662109375 24.519989013671875,4.8899993896484375 25.17999267578125,4.8899993896484375 C25.839996337890625,4.8899993896484375 26.399993896484375,4.660003662109375 26.860000610351562,4.200000762939453 C27.32000732421875,3.7399978637695312 27.550003051757812,3.180004119873047 27.550003051757812,2.520000457763672 C27.550003051757812,1.8599967956542969 27.32000732421875,1.3000030517578125 26.860000610351562,0.8400001525878906 C26.399993896484375,0.3800010681152344 25.839996337890625,0.15000152587890625 25.17999267578125,0.15000152587890625 C24.519989013671875,0.15000152587890625 23.960006713867188,0.3800010681152344 23.5,0.8400001525878906 L0.2400054931640625,10.319999694824219 C0.2400054931640625,8.659988403320312 0.220001220703125,7.185005187988281 0.17999267578125,5.894996643066406 C0.1399993896484375,4.604991912841797 0.0800018310546875,3.3100051879882812 0,2.009998321533203 C0.339996337890625,2.049999237060547 0.709991455078125,2.0849990844726562 1.1100006103515625,2.1149978637695312 C1.5099945068359375,2.1449966430664062 1.959991455078125,2.1599998474121094 2.4600067138671875,2.1599998474121094 C3.1200103759765625,2.1599998474121094 3.8600006103515625,2.134998321533203 4.67999267578125,2.0849990844726562 C5.5,2.0349998474121094 6.5699920654296875,2.009998321533203 7.8899993896484375,2.009998321533203 C9.610015869140625,2.009998321533203 11.17498779296875,2.164997100830078 12.585006713867188,2.4749984741210938 C13.995010375976562,2.7849998474121094 15.209991455078125,3.3099937438964844 16.229995727539062,4.049999237060547 C17.25,4.790000915527344 18.039993286132812,5.784992218017578 18.600006103515625,7.034999847412109 C19.160003662109375,8.285003662109375 19.44000244140625,9.859989166259766 19.44000244140625,11.759998321533203 C19.44000244140625,13.420005798339844 19.165008544921875,14.919990539550781 18.615005493164062,16.259998321533203 C18.06500244140625,17.600006103515625 17.31500244140625,18.7449951171875 16.365005493164062,19.69499969482422 C15.414993286132812,20.645004272460938 14.31500244140625,21.3699951171875 13.06500244140625,21.869998931884766 C11.814987182617188,22.37000274658203 10.480010986328125,22.619998931884766 9.05999755859375,22.619998931884766 C7.55999755859375,22.619998931884766 6.279998779296875,22.610000610351562 5.220001220703125,22.589996337890625 C4.1599884033203125,22.56999969482422 3.2400054931640625,22.55999755859375 2.4600067138671875,22.55999755859375 L1.1100006103515625,22.55999755859375 C0.709991455078125,22.55999755859375 0.339996337890625,22.579998016357422 0,22.619998931884766 C0.0800018310546875,21.379989624023438 0.1399993896484375,20.115005493164062 0.17999267578125,18.824996948242188 C0.220001220703125,17.534992218017578 0.2400054931640625,16.06000518798828 0.2400054931640625,14.39999771118164 L0.2400054931640625,10.319999694824219 L4.67999267578125,6.420001983642578 L4.67999267578125,18.389999389648438 C4.67999267578125,18.97000503540039 4.68499755859375,19.5 4.6949920654296875,19.980003356933594 C4.704986572265625,20.460002899169922 4.709991455078125,20.770000457763672 4.709991455078125,20.910003662109375 C5.0099945068359375,20.93000030517578 5.3699951171875,20.950000762939453 5.7899932861328125,20.970001220703125 C6.209991455078125,20.990001678466797 6.7299957275390625,21 7.3499908447265625,21 C9.610000610351562,21 11.399993896484375,20.230010986328125 12.719985961914062,18.69000244140625 C14.039993286132812,17.149993896484375 14.699996948242188,14.820014953613281 14.699996948242188,11.700000762939453 C14.699996948242188,10.45999526977539 14.534988403320312,9.350006103515625 14.204986572265625,8.370002746582031 C13.874984741210938,7.389995574951172 13.410003662109375,6.555004119873047 12.80999755859375,5.865001678466797 C12.209991455078125,5.174999237060547 11.489990234375,4.6450042724609375 10.649993896484375,4.275001525878906 C9.809982299804688,3.904998779296875 8.8699951171875,3.720001220703125 7.829986572265625,3.720001220703125 C7.1099853515625,3.720001220703125 6.524993896484375,3.7350006103515625 6.0749969482421875,3.7649993896484375 C5.6249847412109375,3.795001983642578 5.1699981689453125,3.8300018310546875 4.709991455078125,3.8700027465820312 C4.709991455078125,4.010002136230469 4.704986572265625,4.319999694824219 4.6949920654296875,4.8000030517578125 C4.68499755859375,5.280002593994141 4.67999267578125,5.819999694824219 4.67999267578125,6.420001983642578 L31.19000244140625,9.89999771118164 C32.029998779296875,9.21999740600586 32.93499755859375,8.700000762939453 33.904998779296875,8.34000015258789 C34.875,7.9799957275390625 35.839996337890625,7.799999237060547 36.80000305175781,7.799999237060547 C37.600006103515625,7.799999237060547 38.334991455078125,7.8899993896484375 39.0050048828125,8.069999694824219 C39.67500305175781,8.25 40.25498962402344,8.534996032714844 40.7449951171875,8.924999237060547 C41.23500061035156,9.31500244140625 41.614990234375,9.819995880126953 41.88499450683594,10.439998626708984 C42.154998779296875,11.060001373291016 42.28999328613281,11.809993743896484 42.28999328613281,12.689998626708984 C42.28999328613281,13.97000503540039 42.274993896484375,15.15499496459961 42.2449951171875,16.244998931884766 C42.214996337890625,17.335006713867188 42.19999694824219,18.419994354248047 42.19999694824219,19.5 C42.19999694824219,19.980003356933594 42.23500061035156,20.354995727539062 42.30499267578125,20.625 C42.375,20.895000457763672 42.47999572753906,21.099998474121094 42.6199951171875,21.23999786376953 C42.75999450683594,21.380001068115234 42.94499206542969,21.470001220703125 43.17500305175781,21.509998321533203 L43.970001220703125,21.56999969482422 L43.970001220703125,22.290000915527344 C43.38999938964844,22.529998779296875 42.899993896484375,22.709999084472656 42.5,22.829998016357422 C42.09999084472656,22.950000762939453 41.66999816894531,23.009998321533203 41.209991455078125,23.009998321533203 C40.470001220703125,23.009998321533203 39.8699951171875,22.830001831054688 39.410003662109375,22.470001220703125 C38.94999694824219,22.109996795654297 38.600006103515625,21.590003967285156 38.36000061035156,20.90999984741211 C37.899993896484375,21.550003051757812 37.36500549316406,22.05999755859375 36.7550048828125,22.439998626708984 C36.144989013671875,22.81999969482422 35.3800048828125,23.009998321533203 34.459991455078125,23.009998321533203 C33.69999694824219,23.009998321533203 33.05000305175781,22.90999984741211 32.50999450683594,22.709999084472656 C31.970001220703125,22.509998321533203 31.524993896484375,22.22500228881836 31.175003051757812,21.854999542236328 C30.824996948242188,21.484996795654297 30.569992065429688,21.06500244140625 30.410003662109375,20.595001220703125 C30.25,20.124996185302734 30.169998168945312,19.650001525878906 30.169998168945312,19.169998168945312 C30.169998168945312,18.509994506835938 30.274993896484375,17.94000244140625 30.485000610351562,17.459999084472656 C30.694992065429688,16.979995727539062 30.9949951171875,16.56999969482422 31.384994506835938,16.229999542236328 C31.774993896484375,15.889999389648438 32.239990234375,15.604999542236328 32.779998779296875,15.375 C33.32000732421875,15.144996643066406 33.92999267578125,14.950000762939453 34.61000061035156,14.790000915527344 C35.44999694824219,14.589996337890625 36.114990234375,14.415000915527344 36.60499572753906,14.264999389648438 C37.095001220703125,14.114997863769531 37.459991455078125,13.96500015258789 37.69999694824219,13.814998626708984 C37.94000244140625,13.664997100830078 38.095001220703125,13.5 38.16499328613281,13.319999694824219 C38.23500061035156,13.139999389648438 38.27000427246094,12.920001983642578 38.27000427246094,12.65999984741211 C38.27000427246094,11.939994812011719 38.01499938964844,11.325000762939453 37.5050048828125,10.814998626708984 C36.9949951171875,10.304996490478516 36.290008544921875,10.049999237060547 35.38999938964844,10.049999237060547 C35.05000305175781,10.049999237060547 34.69999694824219,10.09499740600586 34.339996337890625,10.18499755859375 C33.97999572753906,10.275001525878906 33.63499450683594,10.39999771118164 33.30499267578125,10.55999755859375 C32.97499084472656,10.720001220703125 32.67500305175781,10.894996643066406 32.404998779296875,11.084999084472656 C32.13499450683594,11.275001525878906 31.92999267578125,11.479999542236328 31.789993286132812,11.700000762939453 L31.580001831054688,11.700000762939453 L31.19000244140625,9.89999771118164 L67,17.699996948242188 C66.84001159667969,16.999996185302734 66.760009765625,16.250003814697266 66.760009765625,15.450000762939453 L75.37001037597656,15.450000762939453 C75.3900146484375,15.389999389648438 75.40000915527344,15.270000457763672 75.40000915527344,15.09000015258789 L75.40000915527344,14.459999084472656 C75.40000915527344,12.339988708496094 74.87501525878906,10.700004577636719 73.82501220703125,9.540000915527344 C72.77500915527344,8.379993438720703 71.260009765625,7.799999237060547 69.28001403808594,7.799999237060547 C68.27999877929688,7.799999237060547 67.35501098632812,7.959999084472656 66.5050048828125,8.279998779296875 C65.65499877929688,8.60000228881836 64.92001342773438,9.079994201660156 64.30000305175781,9.71999740600586 C63.68000793457031,10.360000610351562 63.19500732421875,11.159996032714844 62.845001220703125,12.119998931884766 C62.49501037597656,13.080005645751953 62.32000732421875,14.209991455078125 62.32000732421875,15.509998321533203 C62.32000732421875,16.830005645751953 62.51499938964844,17.964996337890625 62.90501403808594,18.915000915527344 C63.295013427734375,19.865005493164062 63.82499694824219,20.649993896484375 64.49501037597656,21.270000457763672 C65.16500854492188,21.890003204345703 65.94000244140625,22.334999084472656 66.82000732421875,22.604999542236328 C67.70001220703125,22.875 68.6300048828125,23.009998321533203 69.61000061035156,23.009998321533203 C70.75001525878906,23.009998321533203 71.66999816894531,22.895000457763672 72.37001037597656,22.665000915527344 C73.07000732421875,22.43499755859375 73.66999816894531,22.130001068115234 74.17001342773438,21.75 L74.83000183105469,20.06999969482422 L74.47000122070312,19.799999237060547 C73.38999938964844,20.70000457763672 72.16001892089844,21.150001525878906 70.78001403808594,21.150001525878906 L68.99501037597656,20.71500015258789 C68.48500061035156,20.42499542236328 68.06500244140625,20.025001525878906 67.73500061035156,19.514999389648438 C67.40499877929688,19.00499725341797 67.16000366210938,18.400001525878906 67,17.699996948242188 L84.15499877929688,8.489997863769531 C83.40498352050781,8.950000762939453 82.75,9.599994659423828 82.18998718261719,10.439998626708984 L82.12998962402344,10.439998626708984 L82.25,8.189998626708984 L81.125,8.294998168945312 C80.77499389648438,8.325000762939453 80.41999816894531,8.34000015258789 80.05999755859375,8.34000015258789 C79.69999694824219,8.34000015258789 79.34500122070312,8.325000762939453 78.9949951171875,8.294998168945312 C78.64498901367188,8.264999389648438 78.28999328613281,8.229999542236328 77.92999267578125,8.189998626708984 C78.02999877929688,9.270004272460938 78.09498596191406,10.344993591308594 78.125,11.415000915527344 C78.15499877929688,12.485004425048828 78.16999816894531,13.629993438720703 78.16999816894531,14.849998474121094 L78.16999816894531,16.049999237060547 C78.16999816894531,17.270004272460938 78.15499877929688,18.419994354248047 78.125,19.5 C78.09498596191406,20.580005645751953 78.02999877929688,21.6199951171875 77.92999267578125,22.619998931884766 L78.91999816894531,22.55999755859375 L81.45498657226562,22.55999755859375 C81.84500122070312,22.55999755859375 82.16999816894531,22.579998016357422 82.42999267578125,22.619998931884766 C82.32998657226562,21.6199951171875 82.26499938964844,20.580005645751953 82.2349853515625,19.5 C82.20498657226562,18.419994354248047 82.18998718261719,17.270004272460938 82.18998718261719,16.049999237060547 L82.18998718261719,14.849998474121094 C82.18998718261719,13.469993591308594 82.39999389648438,12.390003204345703 82.81999206542969,11.610000610351562 C83.239990234375,10.829994201660156 83.89999389648438,10.439998626708984 84.79998779296875,10.439998626708984 C85.63999938964844,10.439998626708984 86.20999145507812,10.769996643066406 86.50999450683594,11.430000305175781 C86.80999755859375,12.090003967285156 86.95999145507812,13.01999282836914 86.95999145507812,14.220001220703125 L86.95999145507812,16.049999237060547 C86.95999145507812,17.270004272460938 86.94499206542969,18.419994354248047 86.91499328613281,19.5 C86.88499450683594,20.580005645751953 86.81999206542969,21.6199951171875 86.71998596191406,22.619998931884766 C87,22.579998016357422 87.32998657226562,22.55999755859375 87.70999145507812,22.55999755859375 L90.2449951171875,22.55999755859375 L91.21998596191406,22.619998931884766 C91.1199951171875,21.6199951171875 91.05499267578125,20.580005645751953 91.02499389648438,19.5 C90.9949951171875,18.419994354248047 90.97999572753906,17.270004272460938 90.97999572753906,16.049999237060547 L90.97999572753906,13.889999389648438 C90.97999572753906,13.529998779296875 91.00999450683594,13.150001525878906 91.06999206542969,12.75 C91.12998962402344,12.349998474121094 91.24998474121094,11.97500228881836 91.42999267578125,11.625 C91.61000061035156,11.27499771118164 91.85499572753906,10.990001678466797 92.16499328613281,10.770000457763672 C92.47499084472656,10.549999237060547 92.8699951171875,10.439998626708984 93.34999084472656,10.439998626708984 C94.11000061035156,10.439998626708984 94.69999694824219,10.734996795654297 95.1199951171875,11.325000762939453 C95.53999328613281,11.915000915527344 95.75,12.83999252319336 95.75,14.099998474121094 C95.75,15.92000961303711 95.72999572753906,17.534992218017578 95.68998718261719,18.94499969482422 C95.64999389648438,20.35500717163086 95.55999755859375,21.579994201660156 95.41999816894531,22.619998931884766 C95.67999267578125,22.579998016357422 96.00999450683594,22.55999755859375 96.40998840332031,22.55999755859375 L98.92999267578125,22.55999755859375 L99.91999816894531,22.619998931884766 C99.87998962402344,21.919994354248047 99.84500122070312,21.195003509521484 99.81498718261719,20.44499969482422 C99.78498840332031,19.694995880126953 99.76998901367188,19.000003814697266 99.76998901367188,18.360000610351562 C99.76998901367188,17.579994201660156 99.78999328613281,16.800003051757812 99.82998657226562,16.020000457763672 C99.8699951171875,15.239994049072266 99.88998413085938,14.340003967285156 99.88998413085938,13.319999694824219 C99.88998413085938,11.379989624023438 99.48500061035156,9.97500228881836 98.67498779296875,9.104999542236328 C97.864990234375,8.234992980957031 96.71000671386719,7.799999237060547 95.20999145507812,7.799999237060547 C94.30998229980469,7.799999237060547 93.45999145507812,8.044998168945312 92.65998840332031,8.53499984741211 C91.8599853515625,9.025001525878906 91.16000366210938,9.729995727539062 90.55999755859375,10.64999771118164 C90.19999694824219,9.729995727539062 89.69499206542969,9.025001525878906 89.04499816894531,8.53499984741211 C88.39498901367188,8.044998168945312 87.6199951171875,7.799999237060547 86.71998596191406,7.799999237060547 L84.15499877929688,8.489997863769531 L105.97500610351562,8.34000015258789 C105.0050048828125,8.700000762939453 104.10000610351562,9.21999740600586 103.260009765625,9.89999771118164 L103.65000915527344,11.700000762939453 L103.86000061035156,11.700000762939453 C104,11.479999542236328 104.20500183105469,11.275001525878906 104.47500610351562,11.084999084472656 C104.74501037597656,10.894996643066406 105.04501342773438,10.720001220703125 105.375,10.55999755859375 C105.70501708984375,10.39999771118164 106.05001831054688,10.275001525878906 106.41000366210938,10.18499755859375 C106.77001953125,10.09499740600586 107.1199951171875,10.049999237060547 107.45999145507812,10.049999237060547 C108.36001586914062,10.049999237060547 109.06500244140625,10.304996490478516 109.57501220703125,10.814998626708984 C110.08502197265625,11.325000762939453 110.33999633789062,11.939994812011719 110.33999633789062,12.65999984741211 C110.33999633789062,12.920001983642578 110.30499267578125,13.139999389648438 110.23501586914062,13.319999694824219 C110.16500854492188,13.5 110.010009765625,13.664997100830078 109.77001953125,13.814998626708984 C109.52999877929688,13.96500015258789 109.16500854492188,14.114997863769531 108.67501831054688,14.264999389648438 C108.18499755859375,14.415000915527344 107.52001953125,14.589996337890625 106.67999267578125,14.790000915527344 C106,14.950000762939453 105.3900146484375,15.144996643066406 104.85000610351562,15.375 C104.30999755859375,15.604999542236328 103.84500122070312,15.889999389648438 103.45500183105469,16.229999542236328 C103.06500244140625,16.56999969482422 102.76499938964844,16.979995727539062 102.55500793457031,17.459999084472656 C102.34500122070312,17.94000244140625 102.24000549316406,18.509994506835938 102.24000549316406,19.169998168945312 C102.24000549316406,19.650001525878906 102.32000732421875,20.124996185302734 102.48001098632812,20.595001220703125 C102.63999938964844,21.06500244140625 102.89500427246094,21.484996795654297 103.24501037597656,21.854999542236328 C103.59500122070312,22.22500228881836 104.04000854492188,22.509998321533203 104.58000183105469,22.709999084472656 C105.1199951171875,22.90999984741211 105.76998901367188,23.009998321533203 106.52999877929688,23.009998321533203 C107.45001220703125,23.009998321533203 108.21499633789062,22.81999969482422 108.82501220703125,22.439998626708984 C109.43499755859375,22.05999755859375 109.97000122070312,21.550003051757812 110.42999267578125,20.90999984741211 C110.67001342773438,21.590003967285156 111.01998901367188,22.109996795654297 111.48001098632812,22.470001220703125 C111.94000244140625,22.830001831054688 112.54000854492188,23.009998321533203 113.27999877929688,23.009998321533203 C113.74002075195312,23.009998321533203 114.17001342773438,22.950000762939453 114.57000732421875,22.829998016357422 C114.97000122070312,22.709999084472656 115.45999145507812,22.529998779296875 116.04000854492188,22.290000915527344 L116.04000854492188,21.56999969482422 C115.739990234375,21.56999969482422 115.47500610351562,21.549999237060547 115.2449951171875,21.509998321533203 L114.69000244140625,21.23999786376953 C114.55001831054688,21.099998474121094 114.44500732421875,20.895000457763672 114.375,20.625 C114.30499267578125,20.354995727539062 114.27001953125,19.980003356933594 114.27001953125,19.5 C114.27001953125,18.419994354248047 114.28500366210938,17.335006713867188 114.31500244140625,16.244998931884766 C114.34500122070312,15.15499496459961 114.36001586914062,13.97000503540039 114.36001586914062,12.689998626708984 C114.36001586914062,11.809993743896484 114.22500610351562,11.060001373291016 113.95501708984375,10.439998626708984 C113.68499755859375,9.819995880126953 113.30499267578125,9.31500244140625 112.81500244140625,8.924999237060547 C112.32501220703125,8.534996032714844 111.7449951171875,8.25 111.07501220703125,8.069999694824219 C110.40499877929688,7.8899993896484375 109.67001342773438,7.799999237060547 108.8699951171875,7.799999237060547 C107.91000366210938,7.799999237060547 106.94500732421875,7.9799957275390625 105.97500610351562,8.34000015258789 L23.169998168945312,14.849998474121094 C23.169998168945312,13.629993438720703 23.154998779296875,12.485004425048828 23.125,11.414997100830078 C23.094985961914062,10.344993591308594 23.029998779296875,9.270004272460938 22.92999267578125,8.189998626708984 L23.919998168945312,8.294998168945312 C24.29998779296875,8.324996948242188 24.719985961914062,8.34000015258789 25.17999267578125,8.34000015258789 C26.1199951171875,8.34000015258789 26.8699951171875,8.290000915527344 27.42999267578125,8.189998626708984 C27.329986572265625,9.270004272460938 27.264999389648438,10.344993591308594 27.2349853515625,11.414997100830078 C27.204986572265625,12.485004425048828 27.189987182617188,13.629993438720703 27.189987182617188,14.849998474121094 L27.189987182617188,16.049999237060547 C27.189987182617188,17.270004272460938 27.204986572265625,18.419994354248047 27.2349853515625,19.5 C27.264999389648438,20.580001831054688 27.329986572265625,21.6199951171875 27.42999267578125,22.619998931884766 C27.169998168945312,22.579998016357422 26.845001220703125,22.55999755859375 26.454986572265625,22.55999755859375 L23.919998168945312,22.55999755859375 L22.92999267578125,22.619998931884766 C23.029998779296875,21.6199951171875 23.094985961914062,20.580001831054688 23.125,19.5 C23.154998779296875,18.419994354248047 23.169998168945312,17.270004272460938 23.169998168945312,16.049999237060547 L23.169998168945312,14.849998474121094 L71.37998962402344,14.10000228881836 C71.33999633789062,12.599994659423828 71.15499877929688,11.400005340576172 70.82499694824219,10.5 C70.4949951171875,9.599998474121094 69.94000244140625,9.150001525878906 69.15998840332031,9.150001525878906 C68.71998596191406,9.150001525878906 68.34999084472656,9.299999237060547 68.04998779296875,9.60000228881836 C67.75,9.900001525878906 67.50999450683594,10.28499984741211 67.33000183105469,10.755001068115234 C67.14999389648438,11.22500228881836 67.01499938964844,11.754997253417969 66.92498779296875,12.345001220703125 C66.83499145507812,12.935005187988281 66.77999877929688,13.519996643066406 66.75999450683594,14.10000228881836 L71.37998962402344,14.10000228881836 L50.19000244140625,18.329998016357422 C50.04998779296875,17.62999725341797 49.97999572753906,16.770004272460938 49.97999572753906,15.75 C49.97999572753906,14.609992980957031 50.06500244140625,13.660003662109375 50.23500061035156,12.89999771118164 C50.404998779296875,12.139995574951172 50.6199951171875,11.53499984741211 50.87998962402344,11.084999084472656 C51.13999938964844,10.634998321533203 51.42999267578125,10.319999694824219 51.75,10.139999389648438 C52.06999206542969,9.959999084472656 52.38999938964844,9.869998931884766 52.709991455078125,9.869998931884766 C53.49000549316406,9.869998931884766 54.12998962402344,10.294994354248047 54.62998962402344,11.145000457763672 C55.1300048828125,11.995002746582031 55.37998962402344,13.349990844726562 55.37998962402344,15.209999084472656 C55.37998962402344,17.370010375976562 55.11500549316406,18.914993286132812 54.584991455078125,19.845001220703125 C54.05499267578125,20.775001525878906 53.3800048828125,21.23999786376953 52.55999755859375,21.23999786376953 C52.220001220703125,21.23999786376953 51.89500427246094,21.145000457763672 51.584991455078125,20.954998016357422 C51.274993896484375,20.764999389648438 51,20.455001831054688 50.75999450683594,20.02499771118164 C50.519989013671875,19.59499740600586 50.33000183105469,19.03000259399414 50.19000244140625,18.329998016357422 L38.31500244140625,16.095001220703125 C38.30499267578125,16.545001983642578 38.29998779296875,17.199996948242188 38.29998779296875,18.060001373291016 C38.29998779296875,19.04000473022461 38.095001220703125,19.779998779296875 37.68499755859375,20.279998779296875 C37.274993896484375,20.78000259399414 36.74000549316406,21.029998779296875 36.08000183105469,21.029998779296875 C35.55999755859375,21.029998779296875 35.144989013671875,20.835002899169922 34.834991455078125,20.44499969482422 C34.524993896484375,20.054996490478516 34.3699951171875,19.490005493164062 34.3699951171875,18.75 C34.3699951171875,17.98999786376953 34.4949951171875,17.410003662109375 34.7449951171875,17.009998321533203 C34.9949951171875,16.609996795654297 35.31498718261719,16.295001983642578 35.70500183105469,16.064998626708984 C36.095001220703125,15.834999084472656 36.524993896484375,15.645000457763672 36.9949951171875,15.494998931884766 C37.464996337890625,15.34499740600586 37.90998840332031,15.150001525878906 38.33000183105469,14.90999984741211 C38.33000183105469,15.25 38.32499694824219,15.644996643066406 38.31500244140625,16.095001220703125 L110.3699951171875,18.060001373291016 C110.3699951171875,17.199996948242188 110.375,16.545001983642578 110.385009765625,16.095001220703125 C110.39498901367188,15.644996643066406 110.39999389648438,15.25 110.39999389648438,14.90999984741211 C109.98001098632812,15.150001525878906 109.53500366210938,15.34499740600586 109.06500244140625,15.494998931884766 C108.59500122070312,15.645000457763672 108.16500854492188,15.834999084472656 107.77499389648438,16.064998626708984 C107.385009765625,16.295001983642578 107.06500244140625,16.609996795654297 106.81500244140625,17.009998321533203 C106.56500244140625,17.410003662109375 106.44000244140625,17.98999786376953 106.44000244140625,18.75 C106.44000244140625,19.490005493164062 106.59500122070312,20.054996490478516 106.90499877929688,20.44499969482422 C107.21499633789062,20.835002899169922 107.6300048828125,21.029998779296875 108.14999389648438,21.029998779296875 C108.80999755859375,21.029998779296875 109.34500122070312,20.78000259399414 109.7550048828125,20.279998779296875 C110.16500854492188,19.779998779296875 110.3699951171875,19.04000473022461 110.3699951171875,18.060001373291016 L59.399993896484375,12.330001831054688Z"/>
  </defs>
  <g opacity="1">
    <use xlink:href="#path-1" fill="rgb(255,255,255)" fill-opacity="1"/>
  </g>
</svg>